<svg width="current" height="current" viewBox="0 0 33 32" fill="none" xmlns="http://www.w3.org/2000/svg">
<path d="M10.6025 18L10.6025 23C10.6025 23.2652 10.7078 23.5196 10.8954 23.7071C11.0829 23.8946 11.3373 24 11.6025 24L23.6546 24L28.6025 28L28.6025 12C28.6025 11.7348 28.4971 11.4804 28.3096 11.2929C28.1221 11.1054 27.8677 11 27.6025 11L22.6025 11M9.55034 18L4.60248 22L4.60248 6C4.60248 5.73478 4.70784 5.48043 4.89537 5.29289C5.08291 5.10536 5.33726 5 5.60248 5L21.6025 5C21.8677 5 22.122 5.10536 22.3096 5.29289C22.4971 5.48043 22.6025 5.73478 22.6025 6L22.6025 17C22.6025 17.2652 22.4971 17.5196 22.3096 17.7071C22.1221 17.8946 21.8677 18 21.6025 18L9.55034 18Z" stroke="#666F6A" stroke-width="2" stroke-linecap="round" stroke-linejoin="round"/>
</svg>
